<?xml version="1.0" encoding="utf-8"?>
<!-- Generator: Adobe Illustrator 19.2.1, SVG Export Plug-In . SVG Version: 6.00 Build 0)  -->
<svg version="1.1"
	 id="svg2" inkscape:version="0.91 r13725" sodipodi:docname="entose_logo.svg" xmlns:cc="http://creativecommons.org/ns#" xmlns:dc="http://purl.org/dc/elements/1.1/" xmlns:inkscape="http://www.inkscape.org/namespaces/inkscape" xmlns:rdf="http://www.w3.org/1999/02/22-rdf-syntax-ns#" xmlns:sodipodi="http://sodipodi.sourceforge.net/DTD/sodipodi-0.dtd" xmlns:svg="http://www.w3.org/2000/svg"
	 xmlns="http://www.w3.org/2000/svg" xmlns:xlink="http://www.w3.org/1999/xlink" x="0px" y="0px" viewBox="0 0 548.1 189.8"
	 style="enable-background:new 0 0 548.1 189.8;" xml:space="preserve">
<style type="text/css">
	.st0{fill:#4A4A89;}
	.st1{fill:#24316A;}
	.st2{fill:#9899C6;}
	.st3{fill:#515CA2;}
	.st4{fill:#2C3779;}
	.st5{fill:#FFFFFF;}
	.st6{fill:#FCC40F;}
	.st7{display:none;}
	.st8{display:inline;}
	.st9{display:inline;fill:#FFFFFF;stroke:#1A171B;}
</style>
<sodipodi:namedview  bordercolor="#666666" borderopacity="1" gridtolerance="10" guidetolerance="10" id="namedview338" inkscape:current-layer="Layer_1" inkscape:cx="295.32231" inkscape:cy="59.835977" inkscape:pageopacity="0" inkscape:pageshadow="2" inkscape:showpageshadow="false" inkscape:window-height="756" inkscape:window-maximized="1" inkscape:window-width="1276" inkscape:window-x="4" inkscape:window-y="0" inkscape:zoom="1.1311805" objecttolerance="10" pagecolor="#ffffff" showborder="true" showgrid="false">
	</sodipodi:namedview>
<g id="Layer_1">
	<path id="path240" class="st0" d="M415.6,60c-15.5,8.2-26.9,22-27.1,34.9c0.2,15.4,16.2,31.9,36.2,38.9
		C423,121.6,415.7,72.1,415.6,60z"/>
	<path id="path242" class="st1" d="M471.3,71.3c-14.1-4.7-30.6-1.3-42.2,10.1c-4,4.1-7,8.8-9,13.7c9.8,13.5,28.2,23.1,44.9,23.1
		c2.4,0,4.7-0.2,6.9-0.5c3.9-6.4,6.3-14.1,6.3-22.8C478.2,85.9,475.6,77.8,471.3,71.3z"/>
	<path id="path244" class="st2" d="M471.1,71.5c5.6,1.8,8.4,6,12.8,10.3c4.8,4.8,11.1,10.3,13.7,17.5c3.6-6.8,5.6-15.2,5.6-25
		c0-27.2-12.8-57.6-54.4-42.6c-20.6,7.5-29.5,18.8-33.2,28.3c4.5-2.4,9.9-2.5,14.9-3.8C445.7,52.2,461.9,57.5,471.1,71.5z"/>
	<path id="path246" class="st3" d="M471.7,117.5c-11.3,13.9-26,21.8-41.4,17.6c-1.8-0.5-3.8-0.7-5.5-1.3c1.2,1.6,2.4,3.1,3.9,4.5
		c15.2,15.2,47.3,21.7,63.4,5.8c10.8-11,11.3-29.4,5.6-44.8C492.3,109.4,481.8,114.2,471.7,117.5z"/>
	<path id="path248" class="st4" d="M471.1,71.5c4.2,6.5,6.8,14.4,6.8,23.4c0,8.6-2.4,16.3-6.3,22.6c11.6-1.8,20.6-8.1,26-18.2
		c-2.6-7.2-6.6-13.7-11.4-18.6C481.8,76.4,476.7,73.4,471.1,71.5z"/>
	<path id="path250" class="st4" d="M413.5,77.4c0.4,6.3,3,12.3,6.9,17.8c2-4.9,5-9.6,9-13.6c11.5-11.3,27.8-14.6,41.8-10
		C462,57.5,445.1,50.4,430,54.5c-5,1.3-9.8,3.2-14.3,5.6C411.9,69.6,413.5,77.4,413.5,77.4z"/>
	<path id="path252" class="st4" d="M471.7,117.5c-2.2,0.3-4.4,0.5-6.8,0.5c-16.6,0-34.8-9.5-44.5-22.9c-5.2,12.8-3.8,27.6,4.4,38.8
		c1.7,0.6,3.5,1.2,5.2,1.6C445.4,139.7,462.6,132.2,471.7,117.5z"/>
	<path id="path254" class="st5" d="M85.1,106.2l10.9,1.3c-1.7,6.4-4.9,11.3-9.5,14.8s-10.6,5.3-17.8,5.3c-9.1,0-16.3-2.8-21.6-8.4
		s-8-13.5-8-23.6c0-10.5,2.7-18.6,8.1-24.4s12.4-8.7,21-8.7c8.3,0,15.1,2.8,20.4,8.5s7.9,13.6,7.9,23.9c0,0.6,0,1.6-0.1,2.8H49.9
		c0.4,6.8,2.3,12.1,5.8,15.7s7.8,5.4,13,5.4c3.9,0,7.2-1,9.9-3S83.5,110.6,85.1,106.2z M50.5,89.2h34.7c-0.5-5.2-1.8-9.2-4-11.8
		c-3.4-4.1-7.7-6.1-13.1-6.1c-4.8,0-8.9,1.6-12.2,4.9C52.7,79.4,50.9,83.7,50.5,89.2z"/>
	<path id="path256" class="st5" d="M123.6,126.2V64h9.5v8.8c4.6-6.8,11.2-10.2,19.8-10.2c3.7,0,7.2,0.7,10.3,2s5.5,3.1,7.1,5.3
		c1.6,2.2,2.7,4.8,3.3,7.8c0.4,2,0.6,5.4,0.6,10.2v38.2h-10.5V88.4c0-4.3-0.4-7.5-1.2-9.6s-2.3-3.8-4.4-5.1
		c-2.1-1.3-4.5-1.9-7.3-1.9c-4.5,0-8.4,1.4-11.6,4.3c-3.3,2.9-4.9,8.3-4.9,16.2v34h-10.7V126.2z"/>
	<path id="path258" class="st5" d="M227.7,116.8l1.5,9.3c-3,0.6-5.6,0.9-8,0.9c-3.8,0-6.8-0.6-8.9-1.8c-2.1-1.2-3.6-2.8-4.4-4.8
		c-0.9-2-1.3-6.1-1.3-12.4V72.2h-7.7V64h7.7V48.6l10.5-6.3V64h10.6v8.2h-10.6v36.4c0,3,0.2,4.9,0.6,5.8c0.4,0.9,1,1.5,1.8,2.1
		c0.8,0.5,2,0.8,3.6,0.8C224.3,117.2,225.8,117.1,227.7,116.8z"/>
	<path id="path260" class="st5" d="M248.2,107.7l10.4-1.6c0.6,4.2,2.2,7.4,4.9,9.6c2.7,2.2,6.4,3.3,11.2,3.3c4.8,0,8.4-1,10.8-3
		c2.3-2,3.5-4.3,3.5-6.9c0-2.4-1-4.3-3.1-5.6c-1.4-0.9-5-2.1-10.8-3.6c-7.7-1.9-13.1-3.6-16.1-5.1c-3-1.4-5.2-3.4-6.8-5.9
		c-1.5-2.5-2.3-5.3-2.3-8.3c0-2.8,0.6-5.3,1.9-7.7c1.3-2.4,3-4.3,5.2-5.9c1.6-1.2,3.9-2.2,6.7-3.1c2.8-0.8,5.9-1.3,9.1-1.3
		c4.9,0,9.2,0.7,12.9,2.1c3.7,1.4,6.4,3.3,8.2,5.7c1.8,2.4,3,5.6,3.6,9.6l-10.3,1.4c-0.5-3.2-1.8-5.7-4.1-7.5
		c-2.2-1.8-5.4-2.7-9.5-2.7c-4.8,0-8.3,0.8-10.4,2.4s-3.1,3.5-3.1,5.6c0,1.4,0.4,2.6,1.3,3.7s2.2,2.1,4,2.8c1.1,0.4,4.2,1.3,9.3,2.7
		c7.5,2,12.7,3.6,15.6,4.9s5.3,3.1,6.9,5.5c1.7,2.4,2.5,5.4,2.5,9c0,3.5-1,6.8-3.1,9.9c-2,3.1-5,5.5-8.9,7.2s-8.2,2.5-13.1,2.5
		c-8.1,0-14.2-1.7-18.5-5C252.1,119.2,249.4,114.3,248.2,107.7z"/>
	<path id="path262" class="st5" d="M322.9,95.1c0-11.5,3.2-20,9.6-25.6c5.3-4.6,11.9-6.9,19.6-6.9c8.5,0,15.5,2.8,21,8.4
		c5.4,5.6,8.1,13.3,8.1,23.2c0,8-1.2,14.3-3.6,18.9s-5.9,8.1-10.5,10.7c-4.6,2.5-9.6,3.8-15,3.8c-8.7,0-15.7-2.8-21.1-8.4
		C325.5,113.7,322.9,105.6,322.9,95.1z M333.7,95.1c0,8,1.7,13.9,5.2,17.9s7.8,5.9,13.1,5.9c5.2,0,9.6-2,13.1-6s5.2-10.1,5.2-18.2
		c0-7.7-1.7-13.5-5.2-17.5s-7.8-5.9-13-5.9c-5.3,0-9.6,2-13.1,5.9C335.4,81.2,333.7,87.2,333.7,95.1z"/>
	<path id="path264" class="st6" d="M454.5,106.2l10.9,1.3c-1.7,6.4-4.9,11.3-9.5,14.8s-10.6,5.3-17.8,5.3c-9.1,0-16.3-2.8-21.6-8.4
		c-5.3-5.6-8-13.5-8-23.6c0-10.5,2.7-18.6,8.1-24.4s12.4-8.7,21-8.7c8.3,0,15.1,2.8,20.4,8.5s7.9,13.6,7.9,23.9c0,0.6,0,1.6-0.1,2.8
		h-46.4c0.4,6.8,2.3,12.1,5.8,15.7s7.8,5.4,13,5.4c3.9,0,7.2-1,9.9-3C450.7,113.9,452.9,110.6,454.5,106.2z M419.9,89.2h34.7
		c-0.5-5.2-1.8-9.2-4-11.8c-3.4-4.1-7.7-6.1-13.1-6.1c-4.8,0-8.9,1.6-12.2,4.9C422.1,79.4,420.2,83.7,419.9,89.2z"/>
</g>
<g id="Layer_3" class="st7">
	<g id="g267" class="st8">
		<path id="path269" class="st1" d="M47.4,167.4c1-0.2,2.4-0.3,3.8-0.3c2.1,0,3.5,0.4,4.4,1.2c0.8,0.7,1.2,1.7,1.2,2.9
			c0,2-1.3,3.3-2.9,3.9v0.1c1.2,0.4,1.9,1.5,2.2,3.1c0.5,2.1,0.9,3.6,1.2,4.2h-2c-0.2-0.5-0.6-1.7-1-3.6c-0.5-2.1-1.3-2.9-3-3h-1.8
			v6.6h-2v-15.1H47.4z M49.4,174.3h2c2.1,0,3.4-1.2,3.4-2.9c0-2-1.4-2.8-3.5-2.8c-0.9,0-1.6,0.1-1.9,0.2V174.3z"/>
		<path id="path271" class="st1" d="M64.6,177.3c0,2.7,1.8,3.8,3.7,3.8c1.4,0,2.3-0.2,3-0.6l0.3,1.4c-0.7,0.3-1.9,0.7-3.6,0.7
			c-3.4,0-5.4-2.2-5.4-5.5s1.9-5.9,5.1-5.9c3.6,0,4.5,3.1,4.5,5.1c0,0.4,0,0.7-0.1,0.9h-7.5V177.3z M70.4,175.9
			c0-1.3-0.5-3.2-2.8-3.2c-2,0-2.9,1.8-3,3.2H70.4z"/>
		<path id="path273" class="st1" d="M78.8,166.4h2v16h-2V166.4z"/>
		<path id="path275" class="st1" d="M90.2,168.4c0,0.7-0.5,1.2-1.3,1.2c-0.7,0-1.2-0.5-1.2-1.2s0.5-1.2,1.2-1.2
			C89.7,167.2,90.2,167.7,90.2,168.4z M88,182.4v-10.9h2v10.9H88z"/>
		<path id="path277" class="st1" d="M104.8,179.8c0,0.9,0,1.9,0.2,2.6h-1.8L103,181l0,0c-0.6,0.9-1.8,1.6-3.3,1.6
			c-2.2,0-3.3-1.6-3.3-3.1c0-2.6,2.3-4.1,6.6-4.1v-0.2c0-0.9-0.2-2.5-2.5-2.5c-1,0-2.1,0.3-2.8,0.8l-0.5-1.3c0.9-0.6,2.2-1,3.6-1
			c3.3,0,4.2,2.3,4.2,4.5v4.1H104.8z M102.9,176.8c-2.2,0-4.6,0.3-4.6,2.5c0,1.3,0.9,1.9,1.9,1.9c1.4,0,2.3-0.9,2.6-1.8
			c0.1-0.2,0.1-0.4,0.1-0.6V176.8z"/>
		<path id="path279" class="st1" d="M111.9,166.4h2v6.9l0,0c0.7-1.2,2-2,3.7-2c2.7,0,4.6,2.3,4.6,5.6c0,3.9-2.5,5.8-4.9,5.8
			c-1.6,0-2.8-0.6-3.7-2.1h-0.1l-0.1,1.8h-1.7c0-0.7,0.1-1.8,0.1-2.8L111.9,166.4L111.9,166.4z M113.9,178c0,0.2,0,0.5,0.1,0.7
			c0.4,1.4,1.5,2.3,3,2.3c2.1,0,3.3-1.7,3.3-4.2c0-2.2-1.1-4.1-3.2-4.1c-1.4,0-2.6,0.9-3,2.4c0,0.2-0.1,0.5-0.1,0.8v2.1H113.9z"/>
		<path id="path281" class="st1" d="M128.8,166.4h2v16h-2V166.4z"/>
		<path id="path283" class="st1" d="M139.2,177.3c0,2.7,1.8,3.8,3.7,3.8c1.4,0,2.3-0.2,3-0.6l0.3,1.4c-0.7,0.3-1.9,0.7-3.6,0.7
			c-3.4,0-5.4-2.2-5.4-5.5s1.9-5.9,5.1-5.9c3.6,0,4.5,3.1,4.5,5.1c0,0.4,0,0.7-0.1,0.9h-7.5V177.3z M145,175.9
			c0-1.3-0.5-3.2-2.8-3.2c-2,0-2.9,1.8-3,3.2H145z"/>
		<path id="path285" class="st1" d="M162.5,180c0.9,0.5,2.2,1,3.5,1c2,0,3.2-1.1,3.2-2.6c0-1.4-0.8-2.2-2.9-3c-2.5-0.9-4-2.2-4-4.3
			c0-2.4,2-4.1,4.9-4.1c1.6,0,2.7,0.4,3.4,0.7l-0.5,1.6c-0.5-0.3-1.5-0.7-2.9-0.7c-2.1,0-2.9,1.2-2.9,2.3c0,1.4,0.9,2.1,3,2.9
			c2.6,1,3.9,2.2,3.9,4.5s-1.7,4.4-5.3,4.4c-1.5,0-3.1-0.5-3.9-1L162.5,180z"/>
		<path id="path287" class="st1" d="M186.7,179.4c0,1.1,0,2.1,0.1,3H185l-0.1-1.8l0,0c-0.5,0.9-1.7,2-3.6,2c-1.7,0-3.8-0.9-3.8-4.8
			v-6.4h2v6c0,2.1,0.6,3.5,2.4,3.5c1.3,0,2.3-0.9,2.6-1.8c0.1-0.3,0.2-0.7,0.2-1v-6.7h2L186.7,179.4L186.7,179.4z"/>
		<path id="path289" class="st1" d="M193.6,180.4c0.6,0.4,1.6,0.8,2.6,0.8c1.4,0,2.1-0.7,2.1-1.6c0-0.9-0.6-1.5-2-2
			c-2-0.7-2.9-1.8-2.9-3.1c0-1.8,1.4-3.2,3.8-3.2c1.1,0,2.1,0.3,2.7,0.7l-0.5,1.4c-0.4-0.3-1.2-0.6-2.2-0.6c-1.2,0-1.8,0.7-1.8,1.5
			c0,0.9,0.7,1.3,2.1,1.8c1.9,0.7,2.9,1.7,2.9,3.3c0,1.9-1.5,3.3-4.1,3.3c-1.2,0-2.3-0.3-3.1-0.8L193.6,180.4z"/>
		<path id="path291" class="st1" d="M209.3,168.9v2.6h2.8v1.5h-2.8v5.9c0,1.4,0.4,2.1,1.5,2.1c0.5,0,0.9,0,1.2-0.1l0.1,1.5
			c-0.4,0.2-1,0.3-1.8,0.3c-0.9,0-1.7-0.3-2.1-0.9c-0.6-0.6-0.8-1.6-0.8-2.8v-6h-1.7v-1.5h1.7v-2L209.3,168.9z"/>
		<path id="path293" class="st1" d="M226.1,179.8c0,0.9,0,1.9,0.2,2.6h-1.8l-0.2-1.4h-0.1c-0.6,0.9-1.8,1.6-3.3,1.6
			c-2.2,0-3.3-1.6-3.3-3.1c0-2.6,2.3-4.1,6.6-4.1v-0.2c0-0.9-0.2-2.5-2.5-2.5c-1,0-2.1,0.3-2.8,0.8l-0.5-1.3c0.9-0.6,2.2-1,3.6-1
			c3.3,0,4.2,2.3,4.2,4.5L226.1,179.8L226.1,179.8z M224.2,176.8c-2.2,0-4.6,0.3-4.6,2.5c0,1.3,0.9,1.9,1.9,1.9
			c1.4,0,2.3-0.9,2.6-1.8c0.1-0.2,0.1-0.4,0.1-0.6V176.8z"/>
		<path id="path295" class="st1" d="M235.4,168.4c0,0.7-0.5,1.2-1.3,1.2c-0.7,0-1.2-0.5-1.2-1.2s0.5-1.2,1.2-1.2
			C235,167.2,235.4,167.7,235.4,168.4z M233.2,182.4v-10.9h2v10.9H233.2z"/>
		<path id="path297" class="st1" d="M242.4,174.4c0-1.1,0-2.1-0.1-3h1.8l0.1,1.8l0,0c0.5-1,1.8-2.1,3.6-2.1c1.5,0,3.9,0.9,3.9,4.6
			v6.5h-2v-6.3c0-1.8-0.7-3.2-2.5-3.2c-1.3,0-2.3,0.9-2.7,2c-0.1,0.2-0.1,0.6-0.1,0.9v6.6h-2V174.4z"/>
		<path id="path299" class="st1" d="M266.4,179.8c0,0.9,0,1.9,0.2,2.6h-1.8l-0.2-1.4h-0.1c-0.6,0.9-1.8,1.6-3.3,1.6
			c-2.2,0-3.3-1.6-3.3-3.1c0-2.6,2.3-4.1,6.6-4.1v-0.2c0-0.9-0.2-2.5-2.5-2.5c-1,0-2.1,0.3-2.8,0.8l-0.5-1.3c0.9-0.6,2.2-1,3.6-1
			c3.3,0,4.2,2.3,4.2,4.5v4.1H266.4z M264.5,176.8c-2.2,0-4.6,0.3-4.6,2.5c0,1.3,0.9,1.9,1.9,1.9c1.4,0,2.3-0.9,2.6-1.8
			c0.1-0.2,0.1-0.4,0.1-0.6V176.8z"/>
		<path id="path301" class="st1" d="M273.5,166.4h2v6.9l0,0c0.7-1.2,2-2,3.7-2c2.7,0,4.6,2.3,4.6,5.6c0,3.9-2.5,5.8-4.9,5.8
			c-1.6,0-2.8-0.6-3.7-2.1h-0.1l-0.1,1.8h-1.7c0-0.7,0.1-1.8,0.1-2.8v-13.2H273.5z M275.5,178c0,0.2,0,0.5,0.1,0.7
			c0.4,1.4,1.5,2.3,3,2.3c2.1,0,3.3-1.7,3.3-4.2c0-2.2-1.1-4.1-3.2-4.1c-1.4,0-2.6,0.9-3,2.4c0,0.2-0.1,0.5-0.1,0.8L275.5,178
			L275.5,178z"/>
		<path id="path303" class="st1" d="M290.4,166.4h2v16h-2V166.4z"/>
		<path id="path305" class="st1" d="M300.8,177.3c0,2.7,1.8,3.8,3.7,3.8c1.4,0,2.3-0.2,3-0.6l0.3,1.4c-0.7,0.3-1.9,0.7-3.6,0.7
			c-3.4,0-5.4-2.2-5.4-5.5s1.9-5.9,5.1-5.9c3.6,0,4.5,3.1,4.5,5.1c0,0.4,0,0.7-0.1,0.9h-7.5V177.3z M306.7,175.9
			c0-1.3-0.5-3.2-2.8-3.2c-2,0-2.9,1.8-3,3.2H306.7z"/>
		<path id="path307" class="st1" d="M335,181.9c-0.7,0.4-2.2,0.7-4,0.7c-4.3,0-7.5-2.7-7.5-7.7c0-4.8,3.2-8,7.9-8
			c1.9,0,3.1,0.4,3.6,0.7l-0.5,1.6c-0.7-0.4-1.8-0.6-3.1-0.6c-3.6,0-5.9,2.3-5.9,6.3c0,3.7,2.1,6.1,5.8,6.1c1.2,0,2.4-0.2,3.2-0.6
			L335,181.9z"/>
		<path id="path309" class="st1" d="M350.9,176.9c0,4-2.8,5.8-5.4,5.8c-3,0-5.2-2.2-5.2-5.6c0-3.7,2.4-5.8,5.4-5.8
			C348.8,171.2,350.9,173.5,350.9,176.9z M342.2,177c0,2.4,1.4,4.2,3.3,4.2s3.3-1.8,3.3-4.2c0-1.8-0.9-4.2-3.3-4.2
			C343.2,172.7,342.2,174.9,342.2,177z"/>
		<path id="path311" class="st1" d="M357.4,174.4c0-1.1,0-2.1-0.1-3h1.8l0.1,1.8l0,0c0.5-1,1.8-2.1,3.6-2.1c1.5,0,3.9,0.9,3.9,4.6
			v6.5h-2v-6.3c0-1.8-0.7-3.2-2.5-3.2c-1.3,0-2.3,0.9-2.7,2c-0.1,0.2-0.1,0.6-0.1,0.9v6.6h-2L357.4,174.4L357.4,174.4z"/>
		<path id="path313" class="st1" d="M373.8,174.4c0-1.1,0-2.1-0.1-3h1.8l0.1,1.8l0,0c0.5-1,1.8-2.1,3.6-2.1c1.5,0,3.9,0.9,3.9,4.6
			v6.5h-2v-6.3c0-1.8-0.7-3.2-2.5-3.2c-1.3,0-2.3,0.9-2.7,2c-0.1,0.2-0.1,0.6-0.1,0.9v6.6h-2L373.8,174.4L373.8,174.4z"/>
		<path id="path315" class="st1" d="M391.4,177.3c0,2.7,1.8,3.8,3.7,3.8c1.4,0,2.3-0.2,3-0.6l0.3,1.4c-0.7,0.3-1.9,0.7-3.6,0.7
			c-3.4,0-5.4-2.2-5.4-5.5s1.9-5.9,5.1-5.9c3.6,0,4.5,3.1,4.5,5.1c0,0.4,0,0.7-0.1,0.9h-7.5V177.3z M397.2,175.9
			c0-1.3-0.5-3.2-2.8-3.2c-2,0-2.9,1.8-3,3.2H397.2z"/>
		<path id="path317" class="st1" d="M413.5,182c-0.5,0.3-1.7,0.7-3.1,0.7c-3.3,0-5.4-2.3-5.4-5.6c0-3.4,2.3-5.8,5.9-5.8
			c1.2,0,2.2,0.3,2.8,0.6l-0.5,1.5c-0.5-0.3-1.2-0.5-2.3-0.5c-2.5,0-3.9,1.8-3.9,4.1c0,2.5,1.6,4.1,3.8,4.1c1.1,0,1.9-0.3,2.4-0.5
			L413.5,182z"/>
		<path id="path319" class="st1" d="M422.7,168.9v2.6h2.8v1.5h-2.8v5.9c0,1.4,0.4,2.1,1.5,2.1c0.5,0,0.9,0,1.2-0.1l0.1,1.5
			c-0.4,0.2-1,0.3-1.8,0.3c-0.9,0-1.7-0.3-2.1-0.9c-0.6-0.6-0.8-1.6-0.8-2.8v-6h-1.7v-1.5h1.7v-2L422.7,168.9z"/>
		<path id="path321" class="st1" d="M432.6,177.3c0,2.7,1.8,3.8,3.7,3.8c1.4,0,2.3-0.2,3-0.6l0.3,1.4c-0.7,0.3-1.9,0.7-3.6,0.7
			c-3.4,0-5.4-2.2-5.4-5.5s1.9-5.9,5.1-5.9c3.6,0,4.5,3.1,4.5,5.1c0,0.4,0,0.7-0.1,0.9h-7.5V177.3z M438.5,175.9
			c0-1.3-0.5-3.2-2.8-3.2c-2,0-2.9,1.8-3,3.2H438.5z"/>
		<path id="path323" class="st1" d="M456.4,166.4v13.2c0,1,0,2.1,0.1,2.8h-1.8l-0.1-1.9l0,0c-0.6,1.2-1.9,2.1-3.7,2.1
			c-2.6,0-4.7-2.2-4.7-5.6c0-3.6,2.2-5.9,4.9-5.9c1.7,0,2.8,0.8,3.3,1.7l0,0v-6.5L456.4,166.4L456.4,166.4z M454.4,175.9
			c0-0.2,0-0.6-0.1-0.8c-0.3-1.3-1.4-2.3-2.9-2.3c-2.1,0-3.3,1.8-3.3,4.2c0,2.2,1.1,4,3.2,4c1.3,0,2.5-0.9,2.9-2.4
			c0.1-0.3,0.1-0.5,0.1-0.9L454.4,175.9L454.4,175.9z"/>
	</g>
</g>
<g id="Layer_2" class="st7">
	<rect id="rect326" y="62.6" class="st9" width="50.5" height="63.6"/>
	<rect id="rect328" y="126.2" class="st9" width="50.5" height="63.6"/>
	<rect id="rect330" class="st9" width="50.5" height="63.6"/>
	<rect id="rect332" x="497.6" y="62.6" class="st9" width="50.5" height="63.6"/>
	<rect id="rect334" x="497.6" y="126.2" class="st9" width="50.5" height="63.6"/>
	<rect id="rect336" x="497.6" class="st9" width="50.5" height="63.6"/>
</g>
</svg>
