<?xml version="1.0" encoding="utf-8"?>
<!-- Generator: Adobe Illustrator 20.1.0, SVG Export Plug-In . SVG Version: 6.00 Build 0)  -->
<svg version="1.1"
	 id="svg2" inkscape:version="0.91 r13725" sodipodi:docname="entose_logo.svg" xmlns:cc="http://creativecommons.org/ns#" xmlns:dc="http://purl.org/dc/elements/1.1/" xmlns:inkscape="http://www.inkscape.org/namespaces/inkscape" xmlns:rdf="http://www.w3.org/1999/02/22-rdf-syntax-ns#" xmlns:sodipodi="http://sodipodi.sourceforge.net/DTD/sodipodi-0.dtd" xmlns:svg="http://www.w3.org/2000/svg"
	 xmlns="http://www.w3.org/2000/svg" xmlns:xlink="http://www.w3.org/1999/xlink" x="0px" y="0px" viewBox="0 0 512 512"
	 style="enable-background:new 0 0 512 512;" xml:space="preserve">
<style type="text/css">
	.st0{fill:#FFFFFF;}
</style>
<sodipodi:namedview  bordercolor="#666666" borderopacity="1" gridtolerance="10" guidetolerance="10" id="namedview338" inkscape:current-layer="Layer_1" inkscape:cx="295.32231" inkscape:cy="59.835977" inkscape:pageopacity="0" inkscape:pageshadow="2" inkscape:showpageshadow="false" inkscape:window-height="756" inkscape:window-maximized="1" inkscape:window-width="1276" inkscape:window-x="4" inkscape:window-y="0" inkscape:zoom="1.1311805" objecttolerance="10" pagecolor="#ffffff" showborder="true" showgrid="false">
	</sodipodi:namedview>
<g>
	<path class="st0" d="M224.1,182.5c-18.4,0-34,6.1-46.7,18.7c-12.2,12.2-19.5,28.7-20.7,49.7h132.7c-1.9-19.9-6.9-35.2-15.3-45.1
		C261.2,190.2,244.7,182.5,224.1,182.5z"/>
	<path class="st0" d="M454.2,289.2c13.6-25.9,21.2-57.9,21.2-95.2c0-104-49-220.3-208.1-162.9c-78.8,28.7-112.8,71.9-127,108.2v0
		C81,170.6,37.4,223.4,36.7,272.8c0.8,58.9,62,122,138.5,148.8l0.8,0.5c4.5,5.9,8.9,11.5,14.5,16.7c58.1,58.1,180.9,83,242.5,22.2
		c41.3-42.1,43.2-112.4,21.4-171.3L454.2,289.2z M332.3,283.5H154.8c1.5,26,8.8,46.3,22.2,60s29.8,20.7,49.7,20.7
		c14.9,0,27.5-3.8,37.9-11.5c9.9-7.3,18.4-19.9,24.5-36.7l41.7,5c-6.5,24.5-18.7,43.2-36.3,56.6s-40.5,20.3-68.1,20.3
		c-34.8,0-62.3-10.7-82.6-32.1c-20.3-21.4-30.6-51.6-30.6-90.3c0-40.2,10.3-71.1,31-93.3c20.7-22.2,47.4-33.3,80.3-33.3
		c31.7,0,57.8,10.7,78,32.5c20.3,21.8,30.2,52,30.2,91.4C332.7,275.1,332.7,278.9,332.3,283.5z M354.2,183.8
		C354.2,183.8,354.2,183.8,354.2,183.8c0.5,0.1,1,0.3,1.5,0.5C355.2,184.2,354.7,184,354.2,183.8z"/>
</g>
</svg>
