<svg id="Layer_1" data-name="Layer 1" xmlns="http://www.w3.org/2000/svg" viewBox="0 0 510.1 138"><defs><style>.cls-1,.cls-2,.cls-3,.cls-4,.cls-5,.cls-6,.cls-7{fill:#fff;}.cls-1{opacity:0.55;}.cls-2{opacity:0.5;}.cls-3{opacity:0.65;}.cls-4{opacity:0.6;}.cls-5{opacity:0.45;}.cls-6{opacity:0.4;}</style></defs><title>entsoe_logo_monochrome</title><path class="cls-1" d="M468.3,10c-25-15-74.9,12.7-72,45.6a26.7,26.7,0,0,1,4.1-5.9q8.1-8.7,21-8.7t20.4,8.5q7.9,8.5,7.9,23.9c0,.6,0,1.6-.1,2.8H405.3a56.7,56.7,0,0,0,27.3,17.5,21.1,21.1,0,0,0,5.8-9.1L449.3,86a28.9,28.9,0,0,1-4.7,9.9c11.1.6,22.1-2.4,30.9-10.4C496.9,65.9,486.2,20.7,468.3,10Z"/><path class="cls-2" d="M421.5,49.7a16.7,16.7,0,0,0-12.2,4.9q-4.9,4.9-5.5,13h34.7q-.7-7.8-4-11.8A16.2,16.2,0,0,0,421.5,49.7Z"/><path class="cls-3" d="M465.2,54.9c-6.6-4.9-15.6-7.1-24.9-6.7l1.4,1.4q7.9,8.5,7.9,23.9c0,.6,0,1.6-.1,2.8H403.2q.6,10.2,5.8,15.7a17.2,17.2,0,0,0,13,5.4,16.1,16.1,0,0,0,9.9-3q4.1-3,6.5-9.7L449.3,86a26.5,26.5,0,0,1-9.5,14.8q-7,5.3-17.8,5.3t-19.3-6.2c9,35.4,57.6,38.1,73.2,22.8S486.5,70.6,465.2,54.9Z"/><path class="cls-4" d="M434.5,55.8a16.2,16.2,0,0,0-7.4-5.2c-8.8,3-16.8,8.6-21.5,17h33Q437.8,59.7,434.5,55.8Z"/><path class="cls-5" d="M422.8,31.7c-24.5-.7-51.4,25.5-50.3,41.7,1.7,24,31.5,43.8,53.6,42s35.9-24.3,36.1-42C462.3,53,447.2,32.4,422.8,31.7Zm26.8,44.5H403.2q.6,10.2,5.8,15.7a17.2,17.2,0,0,0,13,5.4,16.1,16.1,0,0,0,9.9-3q4.1-3,6.5-9.7L449.3,86a26.5,26.5,0,0,1-9.5,14.8q-7,5.3-17.8,5.3-13.6,0-21.6-8.4t-8-23.6q0-15.7,8.1-24.4t21-8.7q12.5,0,20.4,8.5t7.9,23.9C449.6,74,449.6,75,449.6,76.2Z"/><path class="cls-6" d="M421.5,49.7a16.7,16.7,0,0,0-12.2,4.9q-4.9,4.9-5.5,13h34.7q-.7-7.8-4-11.8A16.2,16.2,0,0,0,421.5,49.7Z"/><path class="cls-7" d="M69.1,84.6,79.9,86a26.6,26.6,0,0,1-9.5,14.8q-7,5.3-17.8,5.3Q39,106,31,97.6T23,74.1q0-15.7,8.1-24.4T52,41q12.5,0,20.4,8.5t7.9,23.9-.1,2.8H33.9q.6,10.2,5.8,15.7a17.2,17.2,0,0,0,13,5.4,16.1,16.1,0,0,0,9.9-3Q66.7,91.3,69.1,84.6Zm-34.6-17H69.2q-.7-7.8-4-11.8a16.2,16.2,0,0,0-13.1-6.1,16.7,16.7,0,0,0-12.2,4.9Q35,59.4,34.4,67.6Z"/><path class="cls-7" d="M107.6,104.6V42.4h9.5v8.8Q123.9,41,136.8,41a25.9,25.9,0,0,1,10.3,2,16.2,16.2,0,0,1,7.1,5.3,20.3,20.3,0,0,1,3.3,7.8,60.4,60.4,0,0,1,.6,10.2v38.2H147.6V66.8q0-6.4-1.2-9.6a10.1,10.1,0,0,0-4.4-5.1,13.9,13.9,0,0,0-7.3-1.9A17.1,17.1,0,0,0,123,54.4q-4.9,4.3-4.9,16.2v34Z"/><path class="cls-7" d="M211.7,95.2l1.5,9.3a39.1,39.1,0,0,1-8,.9q-5.7,0-8.9-1.8a10.1,10.1,0,0,1-4.4-4.8q-1.3-3-1.3-12.4V50.6h-7.7V42.4h7.7V27l10.5-6.3V42.4h10.6v8.2H201.1V87q0,4.5.6,5.8a4.4,4.4,0,0,0,1.8,2.1,7,7,0,0,0,3.6.8A34,34,0,0,0,211.7,95.2Z"/><path class="cls-7" d="M232.1,86.1l10.4-1.6q.9,6.3,4.9,9.6t11.2,3.3q7.3,0,10.8-3a8.8,8.8,0,0,0,3.5-6.9,6.4,6.4,0,0,0-3.1-5.6q-2.2-1.4-10.8-3.6-11.6-2.9-16.1-5.1A15.3,15.3,0,0,1,233.9,59a16,16,0,0,1,1.9-7.7,17,17,0,0,1,5.2-5.9,21.7,21.7,0,0,1,6.7-3.1,31.8,31.8,0,0,1,9.1-1.3,36,36,0,0,1,12.9,2.1,17.5,17.5,0,0,1,8.2,5.7,22.3,22.3,0,0,1,3.6,9.6l-10.3,1.4a11.3,11.3,0,0,0-4.1-7.5q-3.4-2.7-9.5-2.7t-10.4,2.4a7,7,0,0,0-3.1,5.6,5.8,5.8,0,0,0,1.3,3.7,9.3,9.3,0,0,0,4,2.8l9.3,2.7a130.2,130.2,0,0,1,15.6,4.9,15.8,15.8,0,0,1,6.9,5.5,15.5,15.5,0,0,1,2.5,9,17.7,17.7,0,0,1-3.1,9.9,19.9,19.9,0,0,1-8.9,7.2,32.3,32.3,0,0,1-13.1,2.5q-12.1,0-18.5-5T232.1,86.1Z"/><path class="cls-7" d="M306.8,73.5q0-17.3,9.6-25.6A28.9,28.9,0,0,1,335.9,41q12.8,0,21,8.4T365,72.7q0,12-3.6,18.9A25.5,25.5,0,0,1,351,102.2a30.5,30.5,0,0,1-15,3.8q-13.1,0-21.1-8.4T306.8,73.5Zm10.8,0q0,11.9,5.2,17.9a17.4,17.4,0,0,0,26.2,0q5.2-6,5.2-18.2T349,55.7a17.4,17.4,0,0,0-26.1,0Q317.6,61.6,317.6,73.5Z"/></svg>