<?xml version="1.0" encoding="UTF-8" standalone="no"?>
<svg width="514px" height="514px" viewBox="0 0 514 514" version="1.1" xmlns="http://www.w3.org/2000/svg" xmlns:xlink="http://www.w3.org/1999/xlink">
    <!-- Generator: Sketch 45.1 (43504) - http://www.bohemiancoding.com/sketch -->
    <title>comments-o</title>
    <desc>Created with Sketch.</desc>
    <defs></defs>
    <g id="Page-1" stroke="none" stroke-width="1" fill="none" fill-rule="evenodd">
        <g id="comments-o" transform="translate(1.000000, 1.000000)">
            <g id="svgGrid" stroke="#B35047">
                <path d="M32,0 L32,512" id="Shape"></path>
                <path d="M64,0 L64,512" id="Shape"></path>
                <path d="M96,0 L96,512" id="Shape"></path>
                <path d="M128,0 L128,512" id="Shape"></path>
                <path d="M160,0 L160,512" id="Shape"></path>
                <path d="M192,0 L192,512" id="Shape"></path>
                <path d="M224,0 L224,512" id="Shape"></path>
                <path d="M256,0 L256,512" id="Shape"></path>
                <path d="M288,0 L288,512" id="Shape"></path>
                <path d="M320,0 L320,512" id="Shape"></path>
                <path d="M352,0 L352,512" id="Shape"></path>
                <path d="M384,0 L384,512" id="Shape"></path>
                <path d="M416,0 L416,512" id="Shape"></path>
                <path d="M448,0 L448,512" id="Shape"></path>
                <path d="M480,0 L480,512" id="Shape"></path>
                <path d="M0,32 L512,32" id="Shape"></path>
                <path d="M0,64 L512,64" id="Shape"></path>
                <path d="M0,96 L512,96" id="Shape"></path>
                <path d="M0,128 L512,128" id="Shape"></path>
                <path d="M0,160 L512,160" id="Shape"></path>
                <path d="M0,192 L512,192" id="Shape"></path>
                <path d="M0,224 L512,224" id="Shape"></path>
                <path d="M0,256 L512,256" id="Shape"></path>
                <path d="M0,288 L512,288" id="Shape"></path>
                <path d="M0,320 L512,320" id="Shape"></path>
                <path d="M0,352 L512,352" id="Shape"></path>
                <path d="M0,384 L512,384" id="Shape"></path>
                <path d="M0,416 L512,416" id="Shape"></path>
                <path d="M0,448 L512,448" id="Shape"></path>
                <path d="M0,480 L512,480" id="Shape"></path>
                <rect id="Rectangle-path" x="0" y="0" width="512" height="512"></rect>
            </g>
            <path d="M206.166864,104.030339 C179.048938,104.030339 153.703425,108.638614 130.130326,117.855164 C106.557226,127.071714 87.8139536,139.567229 73.9005077,155.341709 C59.9870619,171.116189 53.0303389,188.042738 53.0303389,206.121356 C53.0303389,220.655146 57.7272347,234.657213 67.1210261,248.127555 C76.5148176,261.597898 89.7192981,273.295827 106.734468,283.221342 L132.523084,298.109616 L123.217913,320.442026 C129.244119,316.897199 134.738601,313.440992 139.701358,310.073407 L151.399287,301.831684 L165.489975,304.490304 C179.3148,306.971683 192.873763,308.212373 206.166864,308.212373 C233.28479,308.212373 258.630303,303.604097 282.203403,294.387547 C305.776502,285.170997 324.519775,272.675482 338.433221,256.901002 C352.346666,241.126522 359.303389,224.199973 359.303389,206.121356 C359.303389,188.042738 352.346666,171.116189 338.433221,155.341709 C324.519775,139.567229 305.776502,127.071714 282.203403,117.855164 C258.630303,108.638614 233.28479,104.030339 206.166864,104.030339 Z M206.166864,70 C240.019962,70 271.34737,76.0705162 300.149089,88.2115486 C328.950808,100.352581 351.682011,116.880337 368.342698,137.794816 C385.003385,158.709295 393.333728,181.484808 393.333728,206.121356 C393.333728,230.757903 385.003385,253.533416 368.342698,274.447896 C351.682011,295.362375 328.950808,311.890131 300.149089,324.031163 C271.34737,336.172195 240.019962,342.242711 206.166864,342.242711 C190.924108,342.242711 175.326869,340.824781 159.375148,337.988919 C137.397221,353.586158 112.760673,364.929604 85.4655057,372.019258 C79.0848172,373.61443 71.4634392,375.032361 62.6013718,376.27305 L61.8037857,376.27305 C59.8541309,376.27305 58.037407,375.564085 56.3536142,374.146154 C54.6698214,372.728223 53.6506837,370.867189 53.296201,368.563052 C53.1189596,368.031328 53.0303389,367.455293 53.0303389,366.834949 C53.0303389,366.214604 53.0746493,365.638569 53.1632699,365.106845 C53.2518906,364.575121 53.429132,364.043397 53.694994,363.511673 L54.359649,362.182363 L55.2901661,360.720122 L56.3536142,359.390812 L57.5499933,358.061502 L58.6134414,356.865123 C59.4996482,355.801675 61.5379237,353.586158 64.7282679,350.218572 C67.9186122,346.850987 70.2227497,344.236677 71.6406805,342.375642 C73.0586113,340.514608 75.0525765,337.944609 77.6225761,334.665644 C80.1925756,331.386679 82.4080925,327.974783 84.2691266,324.429956 C86.1301608,320.885129 87.9468846,316.985819 89.7192981,312.732027 C67.7413709,299.97065 50.4603394,284.28479 37.8762036,265.674449 C25.2920679,247.064107 19,227.213076 19,206.121356 C19,181.484808 27.3303434,158.709295 43.9910302,137.794816 C60.6517169,116.880337 83.3829199,100.352581 112.184639,88.2115486 C140.986358,76.0705162 172.313767,70 206.166864,70 Z M424.705447,380.792705 C426.47786,385.046497 428.294584,388.945807 430.155618,392.490634 C432.016653,396.035461 434.232169,399.447357 436.802169,402.726322 C439.372169,406.005287 441.366134,408.575286 442.784065,410.43632 C444.201995,412.297355 446.506133,414.911664 449.696477,418.27925 C452.886821,421.646836 454.925097,423.862353 455.811304,424.925801 C455.988545,425.103042 456.343028,425.501835 456.874752,426.12218 C457.406476,426.742524 457.805269,427.185628 458.071131,427.45149 C458.336993,427.717352 458.691476,428.160455 459.134579,428.7808 C459.577682,429.401145 459.887855,429.888558 460.065096,430.243041 L460.729751,431.572351 L461.261475,433.167523 L461.394406,434.895626 L461.128544,436.62373 C460.59682,439.105108 459.444751,441.054763 457.672338,442.472694 C455.899924,443.890625 453.950269,444.51097 451.823373,444.333728 C442.961306,443.093039 435.339928,441.675108 428.959239,440.079936 C401.664072,432.990282 377.027524,421.646836 355.049597,406.049597 C339.097876,408.885459 323.500637,410.303389 308.257881,410.303389 C260.225475,410.303389 218.396517,398.60546 182.771006,375.209602 C193.051004,375.918568 200.849624,376.27305 206.166864,376.27305 C234.702721,376.27305 262.08651,372.28512 288.318229,364.309259 C314.549949,356.333399 337.945807,344.901332 358.505803,330.013058 C380.660972,313.706854 397.676141,294.919271 409.551312,273.65031 C421.426482,252.381348 427.364067,229.871696 427.364067,206.121356 C427.364067,192.473772 425.325792,179.003429 421.249241,165.710328 C444.113375,178.294464 462.191992,194.068944 475.485093,213.033768 C488.778195,231.998593 495.424745,252.381348 495.424745,274.182034 C495.424745,295.450995 489.132677,315.346337 476.548541,333.868058 C463.964406,352.389779 446.683374,368.031328 424.705447,380.792705 Z" id="Shape" fill="#000000" fill-rule="nonzero"></path>
        </g>
    </g>
</svg>