<?xml version="1.0" encoding="UTF-8" standalone="no"?>
<svg width="514px" height="514px" viewBox="0 0 514 514" version="1.1" xmlns="http://www.w3.org/2000/svg" xmlns:xlink="http://www.w3.org/1999/xlink">
    <!-- Generator: Sketch 45.1 (43504) - http://www.bohemiancoding.com/sketch -->
    <title>comments-o</title>
    <desc>Created with Sketch.</desc>
    <defs></defs>
    <g id="Page-1" stroke="none" stroke-width="1" fill="none" fill-rule="evenodd">
        <g id="comments-o" transform="translate(1.000000, 1.000000)">
            <g id="svgGrid" stroke="#B35047">
                <path d="M32,0 L32,512" id="Shape"></path>
                <path d="M64,0 L64,512" id="Shape"></path>
                <path d="M96,0 L96,512" id="Shape"></path>
                <path d="M128,0 L128,512" id="Shape"></path>
                <path d="M160,0 L160,512" id="Shape"></path>
                <path d="M192,0 L192,512" id="Shape"></path>
                <path d="M224,0 L224,512" id="Shape"></path>
                <path d="M256,0 L256,512" id="Shape"></path>
                <path d="M288,0 L288,512" id="Shape"></path>
                <path d="M320,0 L320,512" id="Shape"></path>
                <path d="M352,0 L352,512" id="Shape"></path>
                <path d="M384,0 L384,512" id="Shape"></path>
                <path d="M416,0 L416,512" id="Shape"></path>
                <path d="M448,0 L448,512" id="Shape"></path>
                <path d="M480,0 L480,512" id="Shape"></path>
                <path d="M0,32 L512,32" id="Shape"></path>
                <path d="M0,64 L512,64" id="Shape"></path>
                <path d="M0,96 L512,96" id="Shape"></path>
                <path d="M0,128 L512,128" id="Shape"></path>
                <path d="M0,160 L512,160" id="Shape"></path>
                <path d="M0,192 L512,192" id="Shape"></path>
                <path d="M0,224 L512,224" id="Shape"></path>
                <path d="M0,256 L512,256" id="Shape"></path>
                <path d="M0,288 L512,288" id="Shape"></path>
                <path d="M0,320 L512,320" id="Shape"></path>
                <path d="M0,352 L512,352" id="Shape"></path>
                <path d="M0,384 L512,384" id="Shape"></path>
                <path d="M0,416 L512,416" id="Shape"></path>
                <path d="M0,448 L512,448" id="Shape"></path>
                <path d="M0,480 L512,480" id="Shape"></path>
                <rect id="Rectangle-path" x="0" y="0" width="512" height="512"></rect>
            </g>
            <path d="M201.615062,99.4743943 C174.13911,99.4743943 148.458972,104.14351 124.574648,113.481742 C100.690325,122.819974 81.6995934,135.480462 67.6024549,151.463205 C53.5053164,167.445948 46.4567471,184.59597 46.4567471,202.913271 C46.4567471,217.638944 51.2156538,231.825873 60.733467,245.474058 C70.2512803,259.122243 83.6300933,270.974615 100.869906,281.031172 L126.998997,296.116008 L117.570975,318.743262 C123.676742,315.151635 129.243764,311.649798 134.272043,308.237751 L146.124414,299.887217 L160.401134,302.580938 C174.408482,305.095077 188.146458,306.352147 201.615062,306.352147 C229.091013,306.352147 254.771151,301.683031 278.655475,292.344799 C302.539798,283.006567 321.53053,270.34608 335.627668,254.363337 C349.724807,238.380594 356.773376,221.230572 356.773376,202.913271 C356.773376,184.59597 349.724807,167.445948 335.627668,151.463205 C321.53053,135.480462 302.539798,122.819974 278.655475,113.481742 C254.771151,104.14351 229.091013,99.4743943 201.615062,99.4743943 Z M201.615062,56.975696 C237.823695,56.975696 271.330899,63.4686054 302.136673,76.4544242 C332.942448,89.4402429 357.255313,107.118018 375.075268,129.48775 C392.895224,151.857481 401.805202,176.21774 401.805202,202.568525 C401.805202,228.919311 392.895224,253.279569 375.075268,275.649301 C357.255313,298.019033 332.942448,315.696808 302.136673,328.682627 C271.330899,341.668445 237.823695,348.161355 201.615062,348.161355 C185.311698,348.161355 168.629186,346.644763 151.567526,343.611579 C128.060351,360.294091 101.709565,372.426826 72.5151698,380.009786 C65.6905059,381.715952 57.5388241,383.232544 48.0601243,384.559562 L47.2070413,384.559562 C45.1217273,384.559562 43.1785939,383.801266 41.3776409,382.284674 C39.5766879,380.768082 38.4866374,378.777555 38.1074894,376.313093 C37.9179154,375.744371 37.8231284,375.128256 37.8231284,374.464747 C37.8231284,373.801238 37.8705219,373.185122 37.9653089,372.6164 C38.0600959,372.047678 38.2496699,371.478956 38.5340309,370.910234 L39.2449334,369.488429 L40.2401969,367.924444 L41.3776409,366.502639 L42.6572654,365.080834 L43.7947093,363.80121 C44.7425793,362.663766 46.9226803,360.294091 50.3350122,356.692185 C53.7473442,353.090279 56.2118061,350.294062 57.7283981,348.303535 C59.2449901,346.313008 61.3776975,343.564185 64.1265205,340.057066 C66.8753434,336.549947 69.2450184,332.900648 71.2355453,329.109168 C73.2260723,325.317688 75.1692058,321.14706 77.0649457,316.597284 C53.5577702,302.947957 35.0743055,286.170658 21.6145517,266.265388 C8.15479798,246.360119 1.4249211,225.127831 1.4249211,202.568525 C1.4249211,176.21774 10.3348989,151.857481 28.1548546,129.48775 C45.9748103,107.118018 70.2876754,89.4402429 101.09345,76.4544242 C131.899224,63.4686054 165.406428,56.975696 201.615062,56.975696 Z M435.359799,389.393699 C437.255539,393.943475 439.198673,398.114103 441.1892,401.905583 C443.179727,405.697063 445.549402,409.346362 448.298225,412.853481 C451.047048,416.3606 453.179755,419.109423 454.696347,421.09995 C456.212939,423.090477 458.677401,425.886693 462.089733,429.488599 C465.502065,433.090505 467.682166,435.46018 468.630036,436.597624 C468.81961,436.787198 469.198758,437.21374 469.76748,437.877249 C470.336202,438.540758 470.762743,439.014693 471.047104,439.299054 C471.331465,439.583415 471.710613,440.05735 472.184548,440.720859 C472.658483,441.384368 472.990238,441.905696 473.179812,442.284844 L473.890714,443.706649 L474.459436,445.412815 L474.601617,447.261162 L474.317256,449.109508 C473.748534,451.763544 472.516303,453.848858 470.620563,455.36545 C468.724823,456.882042 466.639509,457.545551 464.364621,457.355977 C454.885921,456.028959 446.734239,454.512367 439.909575,452.806201 C410.71518,445.223241 384.364394,433.090505 360.857219,416.407994 C343.795559,419.441178 327.113047,420.957769 310.809684,420.957769 C259.43513,420.957769 214.695667,408.445886 176.591294,383.422118 C187.586586,384.180414 195.927842,384.559562 201.615062,384.559562 C232.136475,384.559562 261.425657,380.294147 289.482609,371.763317 C317.53956,363.232488 342.563328,351.004965 364.553912,335.080749 C388.250661,317.639941 406.449765,297.545098 419.151223,274.796218 C431.85268,252.047339 438.203409,227.971441 438.203409,202.568525 C438.203409,187.971328 436.023308,173.563704 431.663106,159.345654 C456.118152,172.805408 475.4547,189.677494 489.672749,209.961911 C503.890799,230.246329 510.999824,252.047339 510.999824,275.36494 C510.999824,298.11382 504.269947,319.393501 490.810193,339.203983 C477.35044,359.014466 458.866975,375.744371 435.359799,389.393699 Z" id="Shape" fill="#000000" fill-rule="nonzero"></path>
        </g>
    </g>
</svg>