<svg id="Layer_1" data-name="Layer 1" xmlns="http://www.w3.org/2000/svg" viewBox="0 0 568.36 595.27"><title>legal-regulation</title><path d="M346,210C346,294.5,295.41,363,233,363S120,294.5,120,210c0-36.59,1-77.72,25.29-96.52,21.19-16.4,53.92-9.36,84.89-25.05,31.88-16.15,70.41-9,91.12,26.06C336.76,140.63,346,173.84,346,210Z" transform="translate(-19.08 -6.74)" style="stroke:#000;stroke-miterlimit:10;stroke-width:6px"/><path d="M306.31,250.42" transform="translate(-19.08 -6.74)" style="fill:#fff;stroke:#000;stroke-miterlimit:10;stroke-width:6px"/><path d="M33.49,134.39" transform="translate(-19.08 -6.74)" style="fill:#fff;stroke:#000;stroke-miterlimit:10;stroke-width:6px"/><path d="M100.18,127.48" transform="translate(-19.08 -6.74)" style="fill:#fff;stroke:#000;stroke-miterlimit:10;stroke-width:6px"/><path d="M92.22,134.38" transform="translate(-19.08 -6.74)" style="fill:#fff;stroke:#000;stroke-miterlimit:10;stroke-width:6px"/><path d="M137,243.76a47.25,47.25,0,1,1,12.07-32.22A47.13,47.13,0,0,1,137,243.76" transform="translate(-19.08 -6.74)" style="fill:#fff;stroke:#000;stroke-miterlimit:10;stroke-width:6px"/><path d="M135.52,241.62a47.25,47.25,0,1,1-69.06-2.24" transform="translate(-19.08 -6.74)" style="fill:#fff;stroke:#000;stroke-miterlimit:10;stroke-width:6px"/><path d="M67.36,185.54a47.25,47.25,0,1,1,68,2" transform="translate(-19.08 -6.74)" style="fill:#fff;stroke:#000;stroke-miterlimit:10;stroke-width:6px"/><path d="M133.61,298.9a47.25,47.25,0,1,1-69.06-2.24" transform="translate(-19.08 -6.74)" style="fill:#fff;stroke:#000;stroke-miterlimit:10;stroke-width:6px"/><path d="M351.89,152" transform="translate(-19.08 -6.74)" style="fill:#fff;stroke:#000;stroke-miterlimit:10;stroke-width:6px"/><path d="M418.84,160.11" transform="translate(-19.08 -6.74)" style="fill:#fff;stroke:#000;stroke-miterlimit:10;stroke-width:6px"/><path d="M411.28,167.45" transform="translate(-19.08 -6.74)" style="fill:#fff;stroke:#000;stroke-miterlimit:10;stroke-width:6px"/><path d="M412.42,242.21a47.25,47.25,0,1,1,10.7-32.7,47.13,47.13,0,0,1-10.7,32.7" transform="translate(-19.08 -6.74)" style="fill:#fff;stroke:#000;stroke-miterlimit:10;stroke-width:6px"/><path d="M410.85,240.14a47.25,47.25,0,1,1-69.09.66" transform="translate(-19.08 -6.74)" style="fill:#fff;stroke:#000;stroke-miterlimit:10;stroke-width:6px"/><path d="M340.41,187a47.25,47.25,0,1,1,68.07-.89" transform="translate(-19.08 -6.74)" style="fill:#fff;stroke:#000;stroke-miterlimit:10;stroke-width:6px"/><path d="M411.35,297.45a47.25,47.25,0,1,1-69.09.66" transform="translate(-19.08 -6.74)" style="fill:#fff;stroke:#000;stroke-miterlimit:10;stroke-width:6px"/><path d="M334.68,137.53a47.23,47.23,0,1,1,57-24.64" transform="translate(-19.08 -6.74)" style="fill:#fff;stroke:#000;stroke-miterlimit:10;stroke-width:6px"/><path d="M233,29.91a47.25,47.25,0,1,1,72.28,60.74" transform="translate(-19.08 -6.74)" style="fill:#fff;stroke:#000;stroke-miterlimit:10;stroke-width:6px"/><path d="M305.28,90.65A47.25,47.25,0,0,1,233,29.91" transform="translate(-19.08 -6.74)" style="fill:#fff;stroke:#000;stroke-miterlimit:10;stroke-width:6px"/><path d="M81,115.52a47.23,47.23,0,1,1,59.7,17" transform="translate(-19.08 -6.74)" style="fill:#fff;stroke:#000;stroke-miterlimit:10;stroke-width:6px"/><path d="M229.06,87.91a47.51,47.51,0,0,1-34.73,15.21,47,47,0,0,1-27.64-8.92" transform="translate(-19.08 -6.74)" style="fill:#fff;stroke:#000;stroke-miterlimit:10;stroke-width:6px"/><path d="M147.33,45.65A47.26,47.26,0,1,1,227.94,89" transform="translate(-19.08 -6.74)" style="fill:#fff;stroke:#000;stroke-miterlimit:10;stroke-width:6px"/><rect x="479.98" y="210.77" width="28.77" height="267.36" rx="10.5" ry="10.5"/><rect x="434.76" y="141.06" width="117.15" height="63.51" rx="12" ry="12"/><rect x="558.08" y="141.06" width="10.28" height="62.76" rx="3.75" ry="3.75"/><rect x="420.38" y="141.06" width="10.28" height="62.76" rx="3.75" ry="3.75"/><path d="M32.25,601.51H444.9S496.76,396.33,238.57,385,22.06,601.51,22.06,601.51" transform="translate(-19.08 -6.74)" style="stroke:#1d1d1b;stroke-linecap:round;stroke-miterlimit:10"/><polygon points="248.36 478.14 182.28 478.14 167.59 365.37 260.6 365.37 248.36 478.14" style="fill:#fff;stroke:#000;stroke-linecap:round;stroke-miterlimit:10;stroke-width:3px"/></svg>