<?xml version="1.0" encoding="utf-8"?>
<!-- Generator: Adobe Illustrator 20.1.0, SVG Export Plug-In . SVG Version: 6.00 Build 0)  -->
<svg version="1.1" id="Layer_1" xmlns="http://www.w3.org/2000/svg" xmlns:xlink="http://www.w3.org/1999/xlink" x="0px" y="0px"
	 viewBox="0 0 512 512" enable-background="new 0 0 512 512" xml:space="preserve">
<g id="svgGrid">
	<line fill="none" stroke="#B35047" x1="32" y1="0" x2="32" y2="512"/>
	<line fill="none" stroke="#B35047" x1="64" y1="0" x2="64" y2="512"/>
	<line fill="none" stroke="#B35047" x1="96" y1="0" x2="96" y2="512"/>
	<line fill="none" stroke="#B35047" x1="128" y1="0" x2="128" y2="512"/>
	<line fill="none" stroke="#B35047" x1="160" y1="0" x2="160" y2="512"/>
	<line fill="none" stroke="#B35047" x1="192" y1="0" x2="192" y2="512"/>
	<line fill="none" stroke="#B35047" x1="224" y1="0" x2="224" y2="512"/>
	<line fill="none" stroke="#B35047" x1="256" y1="0" x2="256" y2="512"/>
	<line fill="none" stroke="#B35047" x1="288" y1="0" x2="288" y2="512"/>
	<line fill="none" stroke="#B35047" x1="320" y1="0" x2="320" y2="512"/>
	<line fill="none" stroke="#B35047" x1="352" y1="0" x2="352" y2="512"/>
	<line fill="none" stroke="#B35047" x1="384" y1="0" x2="384" y2="512"/>
	<line fill="none" stroke="#B35047" x1="416" y1="0" x2="416" y2="512"/>
	<line fill="none" stroke="#B35047" x1="448" y1="0" x2="448" y2="512"/>
	<line fill="none" stroke="#B35047" x1="480" y1="0" x2="480" y2="512"/>
	<line fill="none" stroke="#B35047" x1="0" y1="32" x2="512" y2="32"/>
	<line fill="none" stroke="#B35047" x1="0" y1="64" x2="512" y2="64"/>
	<line fill="none" stroke="#B35047" x1="0" y1="96" x2="512" y2="96"/>
	<line fill="none" stroke="#B35047" x1="0" y1="128" x2="512" y2="128"/>
	<line fill="none" stroke="#B35047" x1="0" y1="160" x2="512" y2="160"/>
	<line fill="none" stroke="#B35047" x1="0" y1="192" x2="512" y2="192"/>
	<line fill="none" stroke="#B35047" x1="0" y1="224" x2="512" y2="224"/>
	<line fill="none" stroke="#B35047" x1="0" y1="256" x2="512" y2="256"/>
	<line fill="none" stroke="#B35047" x1="0" y1="288" x2="512" y2="288"/>
	<line fill="none" stroke="#B35047" x1="0" y1="320" x2="512" y2="320"/>
	<line fill="none" stroke="#B35047" x1="0" y1="352" x2="512" y2="352"/>
	<line fill="none" stroke="#B35047" x1="0" y1="384" x2="512" y2="384"/>
	<line fill="none" stroke="#B35047" x1="0" y1="416" x2="512" y2="416"/>
	<line fill="none" stroke="#B35047" x1="0" y1="448" x2="512" y2="448"/>
	<line fill="none" stroke="#B35047" x1="0" y1="480" x2="512" y2="480"/>
	<rect fill="none" stroke="#B35047" width="512" height="512"/>
</g>
<path d="M423.9,281.2c-1.1,15-7.7,29-18.6,39.4c-11.3,10.7-26,16.6-41.6,16.6c-16.4,0-32.4-6.8-43.7-18.7
	c-9.9-10.4-15.7-23.9-16.5-38.2c0-0.3,0-0.6,0-0.8c21.8-21.8,36-56.8,36-96.2c0-28.2-7.2-54.2-19.3-74.6
	c-16.2-27.4-46.3-33-71.1-20.3c-24.2,12.3-49.7,6.8-66.3,19.6c-19,14.7-19.7,46.8-19.7,75.4c0,43.3,17,81.3,42.5,102.2
	c-2,14.3-9.1,27.3-20,36.9c-11,9.6-25.1,14.9-39.7,14.9c-17.4,0-34-7.5-45.4-20.6C91,305.8,85.7,292,85.5,277.7
	c-0.1-8.7,1.6-17.2,5.1-25.1c-2.7-7.5-3.9-15.6-3.5-23.7c0.4-7.7,2.3-15.2,5.5-22.2c-2.7-7-4.1-14.5-4.1-22c0-8,1.6-15.8,4.7-23.1
	c-3.4-8.6-4.9-18-4.1-27.5c1.1-13,6.3-25.2,14.9-34.8c-1.4-8.1-1.1-16.4,0.9-24.5c3.7-14.9,12.8-27.7,25.7-36
	c9.8-6.4,21.2-9.7,32.8-9.7c2.4,0,4.7,0.1,7.1,0.4c11-16,29.3-26.1,49.7-26.1c4.8,0,9.7,0.6,14.4,1.8c6,1.5,11.7,3.9,16.9,7
	c8.7-4.8,18.6-7.4,29-7.4c13.4,0,26.1,4.3,36.8,12.5c5.5,4.2,10.1,9.3,13.8,14.9c3.5-0.6,7.2-1,10.8-1c6.2,0,12.4,1,18.4,2.9
	c26.7,8.5,43.3,34,41.9,60.8c0.7,0.7,1.5,1.4,2.2,2.1c10.1,10.3,16.3,23.8,17.3,38.2c0.6,8.6-0.7,17.2-3.6,25.2
	c3,6.7,4.8,13.9,5.2,21.2c0.5,9.1-1,18.2-4.5,26.5c3.1,7.1,4.8,14.7,5.1,22.5c0.2,8.1-1.2,16.1-4.1,23.6
	C423.1,262.6,424.6,271.9,423.9,281.2z M416.7,508.9H94.5h-8c0,0-26.2-143.2,114.1-166.3l-3.8-28.9h108.7l-3.4,31.4
	C450.5,374.9,416.7,508.9,416.7,508.9z M269.8,345.8h-36.6l7.3,56.1h23.2L269.8,345.8z"/>
</svg>
