<svg id="Layer_1" data-name="Layer 1" xmlns="http://www.w3.org/2000/svg" viewBox="0 0 353.55 565.85"><title>transmission</title><path d="M40,236" transform="translate(-138.54 -23.18)" style="fill:none;stroke:#000;stroke-miterlimit:10;stroke-width:12px"/><ellipse cx="177.81" cy="150.47" rx="87.75" ry="71.63" style="fill:none;stroke:#000;stroke-miterlimit:10;stroke-width:12px"/><ellipse cx="175.48" cy="145.4" rx="131.82" ry="107.61" style="fill:none;stroke:#000;stroke-miterlimit:10;stroke-width:12px"/><ellipse cx="176.77" cy="145.4" rx="170.77" ry="139.4" style="fill:none;stroke:#000;stroke-miterlimit:10;stroke-width:12px"/><polygon points="259.62 306.11 88.76 306.11 174.19 138.09 174.19 138.09 259.62 306.11" style="fill:#fff"/><line x1="11.03" y1="561.14" x2="177.6" y2="168.5" style="fill:none;stroke:#000;stroke-miterlimit:10;stroke-width:9px"/><line x1="318.59" y1="564.34" x2="176.63" y2="165.31" style="fill:none;stroke:#000;stroke-miterlimit:10;stroke-width:9px"/><line x1="146.13" y1="235.7" x2="206.82" y2="258.54" style="fill:none;stroke:#000;stroke-miterlimit:10;stroke-width:15px"/><line x1="211.56" y1="265.91" x2="126.41" y2="300.73" style="fill:none;stroke:#000;stroke-miterlimit:10;stroke-width:15px"/><line x1="121.2" y1="306.41" x2="239.64" y2="346.63" style="fill:none;stroke:#000;stroke-miterlimit:10;stroke-width:15px"/><line x1="242.45" y1="354.16" x2="90.06" y2="375.53" style="fill:none;stroke:#000;stroke-miterlimit:10;stroke-width:15px"/><line x1="84.46" y1="383.27" x2="274.26" y2="434.94" style="fill:none;stroke:#000;stroke-miterlimit:10;stroke-width:12px"/><line x1="280.31" y1="450.69" x2="29.68" y2="517.17" style="fill:none;stroke:#000;stroke-miterlimit:10;stroke-width:12px"/><line x1="291.03" y1="486.88" x2="58.13" y2="447.14" style="fill:none;stroke:#000;stroke-miterlimit:10;stroke-width:12px"/><path d="M254,230.27" transform="translate(-138.54 -23.18)" style="fill:none;stroke:#000;stroke-miterlimit:10;stroke-width:12px"/></svg>