<?xml version="1.0" encoding="utf-8"?>
<!-- Generator: Adobe Illustrator 20.1.0, SVG Export Plug-In . SVG Version: 6.00 Build 0)  -->
<svg version="1.1" id="Layer_1" xmlns="http://www.w3.org/2000/svg" xmlns:xlink="http://www.w3.org/1999/xlink" x="0px" y="0px"
	 viewBox="0 0 512 512" enable-background="new 0 0 512 512" xml:space="preserve">
<g id="svgGrid">
	<line fill="none" stroke="#B35047" x1="32" y1="0" x2="32" y2="512"/>
	<line fill="none" stroke="#B35047" x1="64" y1="0" x2="64" y2="512"/>
	<line fill="none" stroke="#B35047" x1="96" y1="0" x2="96" y2="512"/>
	<line fill="none" stroke="#B35047" x1="128" y1="0" x2="128" y2="512"/>
	<line fill="none" stroke="#B35047" x1="160" y1="0" x2="160" y2="512"/>
	<line fill="none" stroke="#B35047" x1="192" y1="0" x2="192" y2="512"/>
	<line fill="none" stroke="#B35047" x1="224" y1="0" x2="224" y2="512"/>
	<line fill="none" stroke="#B35047" x1="256" y1="0" x2="256" y2="512"/>
	<line fill="none" stroke="#B35047" x1="288" y1="0" x2="288" y2="512"/>
	<line fill="none" stroke="#B35047" x1="320" y1="0" x2="320" y2="512"/>
	<line fill="none" stroke="#B35047" x1="352" y1="0" x2="352" y2="512"/>
	<line fill="none" stroke="#B35047" x1="384" y1="0" x2="384" y2="512"/>
	<line fill="none" stroke="#B35047" x1="416" y1="0" x2="416" y2="512"/>
	<line fill="none" stroke="#B35047" x1="448" y1="0" x2="448" y2="512"/>
	<line fill="none" stroke="#B35047" x1="480" y1="0" x2="480" y2="512"/>
	<line fill="none" stroke="#B35047" x1="0" y1="32" x2="512" y2="32"/>
	<line fill="none" stroke="#B35047" x1="0" y1="64" x2="512" y2="64"/>
	<line fill="none" stroke="#B35047" x1="0" y1="96" x2="512" y2="96"/>
	<line fill="none" stroke="#B35047" x1="0" y1="128" x2="512" y2="128"/>
	<line fill="none" stroke="#B35047" x1="0" y1="160" x2="512" y2="160"/>
	<line fill="none" stroke="#B35047" x1="0" y1="192" x2="512" y2="192"/>
	<line fill="none" stroke="#B35047" x1="0" y1="224" x2="512" y2="224"/>
	<line fill="none" stroke="#B35047" x1="0" y1="256" x2="512" y2="256"/>
	<line fill="none" stroke="#B35047" x1="0" y1="288" x2="512" y2="288"/>
	<line fill="none" stroke="#B35047" x1="0" y1="320" x2="512" y2="320"/>
	<line fill="none" stroke="#B35047" x1="0" y1="352" x2="512" y2="352"/>
	<line fill="none" stroke="#B35047" x1="0" y1="384" x2="512" y2="384"/>
	<line fill="none" stroke="#B35047" x1="0" y1="416" x2="512" y2="416"/>
	<line fill="none" stroke="#B35047" x1="0" y1="448" x2="512" y2="448"/>
	<line fill="none" stroke="#B35047" x1="0" y1="480" x2="512" y2="480"/>
	<rect fill="none" stroke="#B35047" width="512" height="512"/>
</g>
<path d="M436.6,211.2L313,153.7v-37.4h65v32.1c0,6.3,5.8,11.5,12.9,11.5s12.9-5.1,12.9-11.5v-32.1h27c5.9,0,11.1-3.6,12.5-8.8
	s-1.3-10.5-6.5-12.9L267.2,15.8c-1.8-0.9-3.9-1.3-5.9-1.3h-4c-2,0-4,0.4-5.8,1.2L75.6,94.5c-5.3,2.4-8.1,7.7-6.8,12.9
	c1.4,5.2,6.6,8.8,12.5,8.8h27v32.1c0,6.3,5.8,11.5,12.9,11.5c7.1,0,12.9-5.1,12.9-11.5v-32.1h65v39.5L75.6,211.1
	c-5.3,2.4-8.1,7.7-6.8,12.9c1.4,5.2,6.6,8.8,12.5,8.8h27v33.7c0,6.3,5.8,11.5,12.9,11.5c7.1,0,12.9-5.1,12.9-11.5v-33.7h57.2
	L73.6,493.2c-2.2,4.8-0.5,10.3,4.1,13.4c2.3,1.6,5.1,2.4,7.9,2.4c2.7,0,5.4-0.8,7.7-2.3L256,397.9l162.7,108.7
	c2.3,1.5,5,2.3,7.7,2.3c0,0,0,0,0,0c7.1,0,12.9-5.1,12.9-11.5c0-1.8-0.5-3.6-1.3-5.1L320.7,232.9h57.2v33.7
	c0,6.3,5.8,11.5,12.9,11.5s12.9-5.1,12.9-11.5v-33.7h27c5.9,0,11.1-3.6,12.5-8.8C444.5,219,441.8,213.7,436.6,211.2z M313,63
	l65.1,30.3H313V63z M199,93.3h-63.3L199,65V93.3z M267.3,232.9L256,242l-11.3-9.1H267.3z M224.7,209.9V170l34.4-15.4l28.1,13.1v42.3
	H224.7z M256,273l48.1,38.7h-96.1L256,273z M275.2,257.5l21.2-17.1l24.3,53.7L275.2,257.5z M224.7,53.4L259.1,38l28.1,13.1v42.3
	h-62.5V53.4z M224.7,116.3L224.7,116.3h62.5v25.4l-20.1-9.3c-1.8-0.9-3.9-1.3-5.9-1.3h-4c-2,0-4,0.4-5.8,1.2l-26.7,12V116.3z
	 M215.6,240.5l21.2,17.1l-45.4,36.6L215.6,240.5z M135.7,209.9l63.3-28.4v28.4H135.7z M114.8,463.6l55.6-122.9l64.2,42.9
	L114.8,463.6z M256,369.2l-51.6-34.5h103.1L256,369.2z M341.7,340.7l55.6,122.9l-119.8-80L341.7,340.7z M313,209.9v-30.3l65.1,30.3
	H313z"/>
</svg>
