<svg id="Layer_1" data-name="Layer 1" xmlns="http://www.w3.org/2000/svg" viewBox="0 0 507.31 588.81"><title>transmission2</title><path d="M100.61,258" transform="translate(-50.95 -5.45)" style="fill:none;stroke:#000;stroke-miterlimit:10;stroke-width:12px"/><polygon points="261.68 582.81 168.27 582.81 214.97 265.95 214.97 265.95 214.97 265.95 261.68 582.81" style="stroke:#000;stroke-miterlimit:10;stroke-width:12px"/><ellipse cx="356.68" cy="341.54" rx="13.82" ry="116.94" transform="translate(-188.09 334.64) rotate(-43.59)"/><ellipse cx="153.94" cy="312" rx="116.94" ry="13.82" transform="translate(-181.14 105.77) rotate(-28.49)"/><ellipse cx="283.52" cy="121.13" rx="116.94" ry="13.82" transform="translate(70.96 378.24) rotate(-81.52)"/><circle cx="214.97" cy="242.49" r="16.48"/><rect x="365.86" y="127.92" width="93.79" height="23.06"/><polygon points="507.31 139.45 459.65 172.48 459.65 106.42 507.31 139.45 507.31 139.45"/><rect x="365.86" y="209.85" width="93.79" height="23.06"/><polygon points="507.31 221.39 459.65 254.42 459.65 188.35 507.31 221.39 507.31 221.39"/><rect x="365.86" y="287.45" width="93.79" height="23.06"/><polygon points="507.31 298.98 459.65 332.01 459.65 265.95 507.31 298.98 507.31 298.98"/></svg>